<svg aria-roledescription="c4" role="graphics-document document" viewBox="0 -70 1516 1647" style="max-width: 100%;" xmlns="http://www.w3.org/2000/svg" width="100%" id="graph-div" height="100%" xmlns:xlink="http://www.w3.org/1999/xlink"><style>@import url("https://cdnjs.cloudflare.com/ajax/libs/font-awesome/6.2.0/css/all.min.css");'</style><style>#graph-div{font-family:"trebuchet ms",verdana,arial,sans-serif;font-size:12px;fill:#333;}#graph-div .error-icon{fill:hsl(60, 90%, 100%);}#graph-div .error-text{fill:rgb(0, 0, 0);stroke:rgb(0, 0, 0);}#graph-div .edge-thickness-normal{stroke-width:2px;}#graph-div .edge-thickness-thick{stroke-width:3.5px;}#graph-div .edge-pattern-solid{stroke-dasharray:0;}#graph-div .edge-pattern-dashed{stroke-dasharray:3;}#graph-div .edge-pattern-dotted{stroke-dasharray:2;}#graph-div .marker{fill:#0b0b0b;stroke:#0b0b0b;}#graph-div .marker.cross{stroke:#0b0b0b;}#graph-div svg{font-family:"trebuchet ms",verdana,arial,sans-serif;font-size:12px;}#graph-div .person{stroke:#BCBCFB;fill:#ECECFE;}#graph-div :root{--mermaid-font-family:"trebuchet ms",verdana,arial,sans-serif;}</style><g></g><defs><symbol height="24" width="24" id="computer"><path d="M2 2v13h20v-13h-20zm18 11h-16v-9h16v9zm-10.228 6l.466-1h3.524l.467 1h-4.457zm14.228 3h-24l2-6h2.104l-1.33 4h18.45l-1.297-4h2.073l2 6zm-5-10h-14v-7h14v7z" transform="scale(.5)"></path></symbol></defs><defs><symbol clip-rule="evenodd" fill-rule="evenodd" id="database"><path d="M12.258.001l.256.004.255.005.253.008.251.01.249.012.247.015.246.016.242.019.241.02.239.023.236.024.233.027.231.028.229.031.225.032.223.034.22.036.217.038.214.04.211.041.208.043.205.045.201.046.198.048.194.05.191.051.187.053.183.054.18.056.175.057.172.059.168.06.163.061.16.063.155.064.15.066.074.033.073.033.071.034.07.034.069.035.068.035.067.035.066.035.064.036.064.036.062.036.06.036.06.037.058.037.058.037.055.038.055.038.053.038.052.038.051.039.05.039.048.039.047.039.045.04.044.04.043.04.041.04.04.041.039.041.037.041.036.041.034.041.033.042.032.042.03.042.029.042.027.042.026.043.024.043.023.043.021.043.02.043.018.044.017.043.015.044.013.044.012.044.011.045.009.044.007.045.006.045.004.045.002.045.001.045v17l-.001.045-.002.045-.004.045-.006.045-.007.045-.009.044-.011.045-.012.044-.013.044-.015.044-.017.043-.018.044-.02.043-.021.043-.023.043-.024.043-.026.043-.027.042-.029.042-.03.042-.032.042-.033.042-.034.041-.036.041-.037.041-.039.041-.04.041-.041.04-.043.04-.044.04-.045.04-.047.039-.048.039-.05.039-.051.039-.052.038-.053.038-.055.038-.055.038-.058.037-.058.037-.06.037-.06.036-.062.036-.064.036-.064.036-.066.035-.067.035-.068.035-.069.035-.07.034-.071.034-.073.033-.074.033-.15.066-.155.064-.16.063-.163.061-.168.06-.172.059-.175.057-.18.056-.183.054-.187.053-.191.051-.194.05-.198.048-.201.046-.205.045-.208.043-.211.041-.214.04-.217.038-.22.036-.223.034-.225.032-.229.031-.231.028-.233.027-.236.024-.239.023-.241.02-.242.019-.246.016-.247.015-.249.012-.251.01-.253.008-.255.005-.256.004-.258.001-.258-.001-.256-.004-.255-.005-.253-.008-.251-.01-.249-.012-.247-.015-.245-.016-.243-.019-.241-.02-.238-.023-.236-.024-.234-.027-.231-.028-.228-.031-.226-.032-.223-.034-.22-.036-.217-.038-.214-.04-.211-.041-.208-.043-.204-.045-.201-.046-.198-.048-.195-.05-.19-.051-.187-.053-.184-.054-.179-.056-.176-.057-.172-.059-.167-.06-.164-.061-.159-.063-.155-.064-.151-.066-.074-.033-.072-.033-.072-.034-.07-.034-.069-.035-.068-.035-.067-.035-.066-.035-.064-.036-.063-.036-.062-.036-.061-.036-.06-.037-.058-.037-.057-.037-.056-.038-.055-.038-.053-.038-.052-.038-.051-.039-.049-.039-.049-.039-.046-.039-.046-.04-.044-.04-.043-.04-.041-.04-.04-.041-.039-.041-.037-.041-.036-.041-.034-.041-.033-.042-.032-.042-.03-.042-.029-.042-.027-.042-.026-.043-.024-.043-.023-.043-.021-.043-.02-.043-.018-.044-.017-.043-.015-.044-.013-.044-.012-.044-.011-.045-.009-.044-.007-.045-.006-.045-.004-.045-.002-.045-.001-.045v-17l.001-.045.002-.045.004-.045.006-.045.007-.045.009-.044.011-.045.012-.044.013-.044.015-.044.017-.043.018-.044.02-.043.021-.043.023-.043.024-.043.026-.043.027-.042.029-.042.03-.042.032-.042.033-.042.034-.041.036-.041.037-.041.039-.041.04-.041.041-.04.043-.04.044-.04.046-.04.046-.039.049-.039.049-.039.051-.039.052-.038.053-.038.055-.038.056-.038.057-.037.058-.037.06-.037.061-.036.062-.036.063-.036.064-.036.066-.035.067-.035.068-.035.069-.035.07-.034.072-.034.072-.033.074-.033.151-.066.155-.064.159-.063.164-.061.167-.06.172-.059.176-.057.179-.056.184-.054.187-.053.19-.051.195-.05.198-.048.201-.046.204-.045.208-.043.211-.041.214-.04.217-.038.22-.036.223-.034.226-.032.228-.031.231-.028.234-.027.236-.024.238-.023.241-.02.243-.019.245-.016.247-.015.249-.012.251-.01.253-.008.255-.005.256-.004.258-.001.258.001zm-9.258 20.499v.01l.001.021.003.021.004.022.005.021.006.022.007.022.009.023.01.022.011.023.012.023.013.023.015.023.016.024.017.023.018.024.019.024.021.024.022.025.023.024.024.025.052.049.056.05.061.051.066.051.07.051.075.051.079.052.084.052.088.052.092.052.097.052.102.051.105.052.11.052.114.051.119.051.123.051.127.05.131.05.135.05.139.048.144.049.147.047.152.047.155.047.16.045.163.045.167.043.171.043.176.041.178.041.183.039.187.039.19.037.194.035.197.035.202.033.204.031.209.03.212.029.216.027.219.025.222.024.226.021.23.02.233.018.236.016.24.015.243.012.246.01.249.008.253.005.256.004.259.001.26-.001.257-.004.254-.005.25-.008.247-.011.244-.012.241-.014.237-.016.233-.018.231-.021.226-.021.224-.024.22-.026.216-.027.212-.028.21-.031.205-.031.202-.034.198-.034.194-.036.191-.037.187-.039.183-.04.179-.04.175-.042.172-.043.168-.044.163-.045.16-.046.155-.046.152-.047.148-.048.143-.049.139-.049.136-.05.131-.05.126-.05.123-.051.118-.052.114-.051.11-.052.106-.052.101-.052.096-.052.092-.052.088-.053.083-.051.079-.052.074-.052.07-.051.065-.051.06-.051.056-.05.051-.05.023-.024.023-.025.021-.024.02-.024.019-.024.018-.024.017-.024.015-.023.014-.024.013-.023.012-.023.01-.023.01-.022.008-.022.006-.022.006-.022.004-.022.004-.021.001-.021.001-.021v-4.127l-.077.055-.08.053-.083.054-.085.053-.087.052-.09.052-.093.051-.095.05-.097.05-.1.049-.102.049-.105.048-.106.047-.109.047-.111.046-.114.045-.115.045-.118.044-.12.043-.122.042-.124.042-.126.041-.128.04-.13.04-.132.038-.134.038-.135.037-.138.037-.139.035-.142.035-.143.034-.144.033-.147.032-.148.031-.15.03-.151.03-.153.029-.154.027-.156.027-.158.026-.159.025-.161.024-.162.023-.163.022-.165.021-.166.02-.167.019-.169.018-.169.017-.171.016-.173.015-.173.014-.175.013-.175.012-.177.011-.178.01-.179.008-.179.008-.181.006-.182.005-.182.004-.184.003-.184.002h-.37l-.184-.002-.184-.003-.182-.004-.182-.005-.181-.006-.179-.008-.179-.008-.178-.01-.176-.011-.176-.012-.175-.013-.173-.014-.172-.015-.171-.016-.17-.017-.169-.018-.167-.019-.166-.02-.165-.021-.163-.022-.162-.023-.161-.024-.159-.025-.157-.026-.156-.027-.155-.027-.153-.029-.151-.03-.15-.03-.148-.031-.146-.032-.145-.033-.143-.034-.141-.035-.14-.035-.137-.037-.136-.037-.134-.038-.132-.038-.13-.04-.128-.04-.126-.041-.124-.042-.122-.042-.12-.044-.117-.043-.116-.045-.113-.045-.112-.046-.109-.047-.106-.047-.105-.048-.102-.049-.1-.049-.097-.05-.095-.05-.093-.052-.09-.051-.087-.052-.085-.053-.083-.054-.08-.054-.077-.054v4.127zm0-5.654v.011l.001.021.003.021.004.021.005.022.006.022.007.022.009.022.01.022.011.023.012.023.013.023.015.024.016.023.017.024.018.024.019.024.021.024.022.024.023.025.024.024.052.05.056.05.061.05.066.051.07.051.075.052.079.051.084.052.088.052.092.052.097.052.102.052.105.052.11.051.114.051.119.052.123.05.127.051.131.05.135.049.139.049.144.048.147.048.152.047.155.046.16.045.163.045.167.044.171.042.176.042.178.04.183.04.187.038.19.037.194.036.197.034.202.033.204.032.209.03.212.028.216.027.219.025.222.024.226.022.23.02.233.018.236.016.24.014.243.012.246.01.249.008.253.006.256.003.259.001.26-.001.257-.003.254-.006.25-.008.247-.01.244-.012.241-.015.237-.016.233-.018.231-.02.226-.022.224-.024.22-.025.216-.027.212-.029.21-.03.205-.032.202-.033.198-.035.194-.036.191-.037.187-.039.183-.039.179-.041.175-.042.172-.043.168-.044.163-.045.16-.045.155-.047.152-.047.148-.048.143-.048.139-.05.136-.049.131-.05.126-.051.123-.051.118-.051.114-.052.11-.052.106-.052.101-.052.096-.052.092-.052.088-.052.083-.052.079-.052.074-.051.07-.052.065-.051.06-.05.056-.051.051-.049.023-.025.023-.024.021-.025.02-.024.019-.024.018-.024.017-.024.015-.023.014-.023.013-.024.012-.022.01-.023.01-.023.008-.022.006-.022.006-.022.004-.021.004-.022.001-.021.001-.021v-4.139l-.077.054-.08.054-.083.054-.085.052-.087.053-.09.051-.093.051-.095.051-.097.05-.1.049-.102.049-.105.048-.106.047-.109.047-.111.046-.114.045-.115.044-.118.044-.12.044-.122.042-.124.042-.126.041-.128.04-.13.039-.132.039-.134.038-.135.037-.138.036-.139.036-.142.035-.143.033-.144.033-.147.033-.148.031-.15.03-.151.03-.153.028-.154.028-.156.027-.158.026-.159.025-.161.024-.162.023-.163.022-.165.021-.166.02-.167.019-.169.018-.169.017-.171.016-.173.015-.173.014-.175.013-.175.012-.177.011-.178.009-.179.009-.179.007-.181.007-.182.005-.182.004-.184.003-.184.002h-.37l-.184-.002-.184-.003-.182-.004-.182-.005-.181-.007-.179-.007-.179-.009-.178-.009-.176-.011-.176-.012-.175-.013-.173-.014-.172-.015-.171-.016-.17-.017-.169-.018-.167-.019-.166-.02-.165-.021-.163-.022-.162-.023-.161-.024-.159-.025-.157-.026-.156-.027-.155-.028-.153-.028-.151-.03-.15-.03-.148-.031-.146-.033-.145-.033-.143-.033-.141-.035-.14-.036-.137-.036-.136-.037-.134-.038-.132-.039-.13-.039-.128-.04-.126-.041-.124-.042-.122-.043-.12-.043-.117-.044-.116-.044-.113-.046-.112-.046-.109-.046-.106-.047-.105-.048-.102-.049-.1-.049-.097-.05-.095-.051-.093-.051-.09-.051-.087-.053-.085-.052-.083-.054-.08-.054-.077-.054v4.139zm0-5.666v.011l.001.02.003.022.004.021.005.022.006.021.007.022.009.023.01.022.011.023.012.023.013.023.015.023.016.024.017.024.018.023.019.024.021.025.022.024.023.024.024.025.052.05.056.05.061.05.066.051.07.051.075.052.079.051.084.052.088.052.092.052.097.052.102.052.105.051.11.052.114.051.119.051.123.051.127.05.131.05.135.05.139.049.144.048.147.048.152.047.155.046.16.045.163.045.167.043.171.043.176.042.178.04.183.04.187.038.19.037.194.036.197.034.202.033.204.032.209.03.212.028.216.027.219.025.222.024.226.021.23.02.233.018.236.017.24.014.243.012.246.01.249.008.253.006.256.003.259.001.26-.001.257-.003.254-.006.25-.008.247-.01.244-.013.241-.014.237-.016.233-.018.231-.02.226-.022.224-.024.22-.025.216-.027.212-.029.21-.03.205-.032.202-.033.198-.035.194-.036.191-.037.187-.039.183-.039.179-.041.175-.042.172-.043.168-.044.163-.045.16-.045.155-.047.152-.047.148-.048.143-.049.139-.049.136-.049.131-.051.126-.05.123-.051.118-.052.114-.051.11-.052.106-.052.101-.052.096-.052.092-.052.088-.052.083-.052.079-.052.074-.052.07-.051.065-.051.06-.051.056-.05.051-.049.023-.025.023-.025.021-.024.02-.024.019-.024.018-.024.017-.024.015-.023.014-.024.013-.023.012-.023.01-.022.01-.023.008-.022.006-.022.006-.022.004-.022.004-.021.001-.021.001-.021v-4.153l-.077.054-.08.054-.083.053-.085.053-.087.053-.09.051-.093.051-.095.051-.097.05-.1.049-.102.048-.105.048-.106.048-.109.046-.111.046-.114.046-.115.044-.118.044-.12.043-.122.043-.124.042-.126.041-.128.04-.13.039-.132.039-.134.038-.135.037-.138.036-.139.036-.142.034-.143.034-.144.033-.147.032-.148.032-.15.03-.151.03-.153.028-.154.028-.156.027-.158.026-.159.024-.161.024-.162.023-.163.023-.165.021-.166.02-.167.019-.169.018-.169.017-.171.016-.173.015-.173.014-.175.013-.175.012-.177.01-.178.01-.179.009-.179.007-.181.006-.182.006-.182.004-.184.003-.184.001-.185.001-.185-.001-.184-.001-.184-.003-.182-.004-.182-.006-.181-.006-.179-.007-.179-.009-.178-.01-.176-.01-.176-.012-.175-.013-.173-.014-.172-.015-.171-.016-.17-.017-.169-.018-.167-.019-.166-.02-.165-.021-.163-.023-.162-.023-.161-.024-.159-.024-.157-.026-.156-.027-.155-.028-.153-.028-.151-.03-.15-.03-.148-.032-.146-.032-.145-.033-.143-.034-.141-.034-.14-.036-.137-.036-.136-.037-.134-.038-.132-.039-.13-.039-.128-.041-.126-.041-.124-.041-.122-.043-.12-.043-.117-.044-.116-.044-.113-.046-.112-.046-.109-.046-.106-.048-.105-.048-.102-.048-.1-.05-.097-.049-.095-.051-.093-.051-.09-.052-.087-.052-.085-.053-.083-.053-.08-.054-.077-.054v4.153zm8.74-8.179l-.257.004-.254.005-.25.008-.247.011-.244.012-.241.014-.237.016-.233.018-.231.021-.226.022-.224.023-.22.026-.216.027-.212.028-.21.031-.205.032-.202.033-.198.034-.194.036-.191.038-.187.038-.183.04-.179.041-.175.042-.172.043-.168.043-.163.045-.16.046-.155.046-.152.048-.148.048-.143.048-.139.049-.136.05-.131.05-.126.051-.123.051-.118.051-.114.052-.11.052-.106.052-.101.052-.096.052-.092.052-.088.052-.083.052-.079.052-.074.051-.07.052-.065.051-.06.05-.056.05-.051.05-.023.025-.023.024-.021.024-.02.025-.019.024-.018.024-.017.023-.015.024-.014.023-.013.023-.012.023-.01.023-.01.022-.008.022-.006.023-.006.021-.004.022-.004.021-.001.021-.001.021.001.021.001.021.004.021.004.022.006.021.006.023.008.022.01.022.01.023.012.023.013.023.014.023.015.024.017.023.018.024.019.024.02.025.021.024.023.024.023.025.051.05.056.05.06.05.065.051.07.052.074.051.079.052.083.052.088.052.092.052.096.052.101.052.106.052.11.052.114.052.118.051.123.051.126.051.131.05.136.05.139.049.143.048.148.048.152.048.155.046.16.046.163.045.168.043.172.043.175.042.179.041.183.04.187.038.191.038.194.036.198.034.202.033.205.032.21.031.212.028.216.027.22.026.224.023.226.022.231.021.233.018.237.016.241.014.244.012.247.011.25.008.254.005.257.004.26.001.26-.001.257-.004.254-.005.25-.008.247-.011.244-.012.241-.014.237-.016.233-.018.231-.021.226-.022.224-.023.22-.026.216-.027.212-.028.21-.031.205-.032.202-.033.198-.034.194-.036.191-.038.187-.038.183-.04.179-.041.175-.042.172-.043.168-.043.163-.045.16-.046.155-.046.152-.048.148-.048.143-.048.139-.049.136-.05.131-.05.126-.051.123-.051.118-.051.114-.052.11-.052.106-.052.101-.052.096-.052.092-.052.088-.052.083-.052.079-.052.074-.051.07-.052.065-.051.06-.05.056-.05.051-.05.023-.025.023-.024.021-.024.02-.025.019-.024.018-.024.017-.023.015-.024.014-.023.013-.023.012-.023.01-.023.01-.022.008-.022.006-.023.006-.021.004-.022.004-.021.001-.021.001-.021-.001-.021-.001-.021-.004-.021-.004-.022-.006-.021-.006-.023-.008-.022-.01-.022-.01-.023-.012-.023-.013-.023-.014-.023-.015-.024-.017-.023-.018-.024-.019-.024-.02-.025-.021-.024-.023-.024-.023-.025-.051-.05-.056-.05-.06-.05-.065-.051-.07-.052-.074-.051-.079-.052-.083-.052-.088-.052-.092-.052-.096-.052-.101-.052-.106-.052-.11-.052-.114-.052-.118-.051-.123-.051-.126-.051-.131-.05-.136-.05-.139-.049-.143-.048-.148-.048-.152-.048-.155-.046-.16-.046-.163-.045-.168-.043-.172-.043-.175-.042-.179-.041-.183-.04-.187-.038-.191-.038-.194-.036-.198-.034-.202-.033-.205-.032-.21-.031-.212-.028-.216-.027-.22-.026-.224-.023-.226-.022-.231-.021-.233-.018-.237-.016-.241-.014-.244-.012-.247-.011-.25-.008-.254-.005-.257-.004-.26-.001-.26.001z" transform="scale(.5)"></path></symbol></defs><defs><symbol height="24" width="24" id="clock"><path d="M12 2c5.514 0 10 4.486 10 10s-4.486 10-10 10-10-4.486-10-10 4.486-10 10-10zm0-2c-6.627 0-12 5.373-12 12s5.373 12 12 12 12-5.373 12-12-5.373-12-12-12zm5.848 12.459c.202.038.202.333.001.372-1.907.361-6.045 1.111-6.547 1.111-.719 0-1.301-.582-1.301-1.301 0-.512.77-5.447 1.125-7.445.034-.192.312-.181.343.014l.985 6.238 5.394 1.011z" transform="scale(.5)"></path></symbol></defs><g class="person-man"><rect stroke-width="0.5" ry="2.5" rx="2.5" height="107" width="310" stroke="#3C7FC0" fill="#438DD5" y="168" x="150"></rect><text y="188" x="273.5" textLength="63" lengthAdjust="spacing" font-style="italic" font-size="12" font-family="&quot;Open Sans&quot;, sans-serif" fill="#FFFFFF">&lt;&lt;container&gt;&gt;</text><text fill="#FFFFFF" style="text-anchor: middle; font-size: 16px; font-weight: bold; font-family: &quot;Open Sans&quot;, sans-serif;" dominant-baseline="middle" y="206" x="305"><tspan alignment-baseline="mathematical" dy="0">SQL Database</tspan></text><text font-style="italic" fill="#FFFFFF" style="text-anchor: middle; font-size: 14px; font-weight: normal; font-family: &quot;Open Sans&quot;, sans-serif;" dominant-baseline="middle" y="230" x="305"><tspan alignment-baseline="mathematical" dy="0">[SQL]</tspan></text><text fill="#FFFFFF" style="text-anchor: middle; font-size: 14px; font-weight: normal; font-family: &quot;Open Sans&quot;, sans-serif;" dominant-baseline="middle" y="264" x="305"><tspan alignment-baseline="mathematical" dy="0">Manages application data using SQL database</tspan></text></g><g class="person-man"><rect stroke-width="0.5" ry="2.5" rx="2.5" height="107" width="391" stroke="#3C7FC0" fill="#438DD5" y="168" x="560"></rect><text y="188" x="724" textLength="63" lengthAdjust="spacing" font-style="italic" font-size="12" font-family="&quot;Open Sans&quot;, sans-serif" fill="#FFFFFF">&lt;&lt;container&gt;&gt;</text><text fill="#FFFFFF" style="text-anchor: middle; font-size: 16px; font-weight: bold; font-family: &quot;Open Sans&quot;, sans-serif;" dominant-baseline="middle" y="206" x="755.5"><tspan alignment-baseline="mathematical" dy="0">Caching Layer</tspan></text><text font-style="italic" fill="#FFFFFF" style="text-anchor: middle; font-size: 14px; font-weight: normal; font-family: &quot;Open Sans&quot;, sans-serif;" dominant-baseline="middle" y="230" x="755.5"><tspan alignment-baseline="mathematical" dy="0">[Caching]</tspan></text><text fill="#FFFFFF" style="text-anchor: middle; font-size: 14px; font-weight: normal; font-family: &quot;Open Sans&quot;, sans-serif;" dominant-baseline="middle" y="264" x="755.5"><tspan alignment-baseline="mathematical" dy="0">Caches frequently accessed data for improved performance</tspan></text></g><g class="person-man"><rect stroke-width="0.5" ry="2.5" rx="2.5" height="107" width="239" stroke="#3C7FC0" fill="#438DD5" y="168" x="1051"></rect><text y="188" x="1139" textLength="63" lengthAdjust="spacing" font-style="italic" font-size="12" font-family="&quot;Open Sans&quot;, sans-serif" fill="#FFFFFF">&lt;&lt;container&gt;&gt;</text><text fill="#FFFFFF" style="text-anchor: middle; font-size: 16px; font-weight: bold; font-family: &quot;Open Sans&quot;, sans-serif;" dominant-baseline="middle" y="206" x="1170.5"><tspan alignment-baseline="mathematical" dy="0">Google Cloud Storage (GCS)</tspan></text><text font-style="italic" fill="#FFFFFF" style="text-anchor: middle; font-size: 14px; font-weight: normal; font-family: &quot;Open Sans&quot;, sans-serif;" dominant-baseline="middle" y="230" x="1170.5"><tspan alignment-baseline="mathematical" dy="0">[Storage]</tspan></text><text fill="#FFFFFF" style="text-anchor: middle; font-size: 14px; font-weight: normal; font-family: &quot;Open Sans&quot;, sans-serif;" dominant-baseline="middle" y="264" x="1170.5"><tspan alignment-baseline="mathematical" dy="0">Stores application data in GCS</tspan></text></g><g class="person-man"><rect stroke-width="0.5" ry="2.5" rx="2.5" height="107" width="424" stroke="#3C7FC0" fill="#438DD5" y="375" x="150"></rect><text y="395" x="330.5" textLength="63" lengthAdjust="spacing" font-style="italic" font-size="12" font-family="&quot;Open Sans&quot;, sans-serif" fill="#FFFFFF">&lt;&lt;container&gt;&gt;</text><text fill="#FFFFFF" style="text-anchor: middle; font-size: 16px; font-weight: bold; font-family: &quot;Open Sans&quot;, sans-serif;" dominant-baseline="middle" y="413" x="362"><tspan alignment-baseline="mathematical" dy="0">RabbitMQ</tspan></text><text font-style="italic" fill="#FFFFFF" style="text-anchor: middle; font-size: 14px; font-weight: normal; font-family: &quot;Open Sans&quot;, sans-serif;" dominant-baseline="middle" y="437" x="362"><tspan alignment-baseline="mathematical" dy="0">[Messaging]</tspan></text><text fill="#FFFFFF" style="text-anchor: middle; font-size: 14px; font-weight: normal; font-family: &quot;Open Sans&quot;, sans-serif;" dominant-baseline="middle" y="471" x="362"><tspan alignment-baseline="mathematical" dy="0">Facilitates asynchronous messaging for event-driven architecture</tspan></text></g><g class="person-man"><rect stroke-width="0.5" ry="2.5" rx="2.5" height="107" width="376" stroke="#3C7FC0" fill="#438DD5" y="375" x="674"></rect><text y="395" x="830.5" textLength="63" lengthAdjust="spacing" font-style="italic" font-size="12" font-family="&quot;Open Sans&quot;, sans-serif" fill="#FFFFFF">&lt;&lt;container&gt;&gt;</text><text fill="#FFFFFF" style="text-anchor: middle; font-size: 16px; font-weight: bold; font-family: &quot;Open Sans&quot;, sans-serif;" dominant-baseline="middle" y="413" x="862"><tspan alignment-baseline="mathematical" dy="0">Google Kubernetes Engine (GKE)</tspan></text><text font-style="italic" fill="#FFFFFF" style="text-anchor: middle; font-size: 14px; font-weight: normal; font-family: &quot;Open Sans&quot;, sans-serif;" dominant-baseline="middle" y="437" x="862"><tspan alignment-baseline="mathematical" dy="0">[Deployment]</tspan></text><text fill="#FFFFFF" style="text-anchor: middle; font-size: 14px; font-weight: normal; font-family: &quot;Open Sans&quot;, sans-serif;" dominant-baseline="middle" y="471" x="862"><tspan alignment-baseline="mathematical" dy="0">Deploys and orchestrates Dockerized application on GKE</tspan></text></g><g class="person-man"><rect stroke-width="0.5" ry="2.5" rx="2.5" height="136" width="216" stroke="#3C7FC0" fill="#1168BD" y="375" x="1150"></rect><text y="395" x="1232.5" textLength="51" lengthAdjust="spacing" font-style="italic" font-size="12" font-family="&quot;Open Sans&quot;, sans-serif" fill="#FFFFFF">&lt;&lt;system&gt;&gt;</text><text fill="#FFFFFF" style="text-anchor: middle; font-size: 16px; font-weight: bold; font-family: &quot;Open Sans&quot;, sans-serif;" dominant-baseline="middle" y="461" x="1258"><tspan alignment-baseline="mathematical" dy="0">Business Logic Layer</tspan></text><text fill="#FFFFFF" style="text-anchor: middle; font-size: 14px; font-weight: normal; font-family: &quot;Open Sans&quot;, sans-serif;" dominant-baseline="middle" y="500" x="1258"><tspan alignment-baseline="mathematical" dy="0"> Python, Elixir</tspan></text></g><g class="person-man"><rect stroke-width="0.5" ry="2.5" rx="2.5" height="136" width="216" stroke="#3C7FC0" fill="#1168BD" y="611" x="150"></rect><text y="631" x="232.5" textLength="51" lengthAdjust="spacing" font-style="italic" font-size="12" font-family="&quot;Open Sans&quot;, sans-serif" fill="#FFFFFF">&lt;&lt;system&gt;&gt;</text><text fill="#FFFFFF" style="text-anchor: middle; font-size: 16px; font-weight: bold; font-family: &quot;Open Sans&quot;, sans-serif;" dominant-baseline="middle" y="697" x="258"><tspan alignment-baseline="mathematical" dy="0">Data Access Layer</tspan></text><text fill="#FFFFFF" style="text-anchor: middle; font-size: 14px; font-weight: normal; font-family: &quot;Open Sans&quot;, sans-serif;" dominant-baseline="middle" y="736" x="258"><tspan alignment-baseline="mathematical" dy="0">ORM Frameworks</tspan></text></g><g class="person-man"><rect stroke-width="0.5" ry="2.5" rx="2.5" height="136" width="216" stroke="#3C7FC0" fill="#1168BD" y="611" x="466"></rect><text y="631" x="548.5" textLength="51" lengthAdjust="spacing" font-style="italic" font-size="12" font-family="&quot;Open Sans&quot;, sans-serif" fill="#FFFFFF">&lt;&lt;system&gt;&gt;</text><text fill="#FFFFFF" style="text-anchor: middle; font-size: 16px; font-weight: bold; font-family: &quot;Open Sans&quot;, sans-serif;" dominant-baseline="middle" y="697" x="574"><tspan alignment-baseline="mathematical" dy="0">Service APIs</tspan></text><text fill="#FFFFFF" style="text-anchor: middle; font-size: 14px; font-weight: normal; font-family: &quot;Open Sans&quot;, sans-serif;" dominant-baseline="middle" y="736" x="574"><tspan alignment-baseline="mathematical" dy="0">RESTful API</tspan></text></g><g class="person-man"><rect stroke-width="0.5" ry="2.5" rx="2.5" height="136" width="216" stroke="#3C7FC0" fill="#1168BD" y="611" x="782"></rect><text y="631" x="864.5" textLength="51" lengthAdjust="spacing" font-style="italic" font-size="12" font-family="&quot;Open Sans&quot;, sans-serif" fill="#FFFFFF">&lt;&lt;system&gt;&gt;</text><text fill="#FFFFFF" style="text-anchor: middle; font-size: 16px; font-weight: bold; font-family: &quot;Open Sans&quot;, sans-serif;" dominant-baseline="middle" y="697" x="890"><tspan alignment-baseline="mathematical" dy="0">Event Handling</tspan></text><text fill="#FFFFFF" style="text-anchor: middle; font-size: 14px; font-weight: normal; font-family: &quot;Open Sans&quot;, sans-serif;" dominant-baseline="middle" y="736" x="890"><tspan alignment-baseline="mathematical" dy="0">Apache Kafka, RabbitMQ</tspan></text></g><g class="person-man"><rect stroke-width="0.5" ry="2.5" rx="2.5" height="136" width="232" stroke="#3C7FC0" fill="#1168BD" y="611" x="1098"></rect><text y="631" x="1188.5" textLength="51" lengthAdjust="spacing" font-style="italic" font-size="12" font-family="&quot;Open Sans&quot;, sans-serif" fill="#FFFFFF">&lt;&lt;system&gt;&gt;</text><text fill="#FFFFFF" style="text-anchor: middle; font-size: 16px; font-weight: bold; font-family: &quot;Open Sans&quot;, sans-serif;" dominant-baseline="middle" y="697" x="1214"><tspan alignment-baseline="mathematical" dy="0">Security and Authentication</tspan></text><text fill="#FFFFFF" style="text-anchor: middle; font-size: 14px; font-weight: normal; font-family: &quot;Open Sans&quot;, sans-serif;" dominant-baseline="middle" y="736" x="1214"><tspan alignment-baseline="mathematical" dy="0">OAuth2, JWT, SSL/TLS</tspan></text></g><g class="person-man"><rect stroke-width="0.5" ry="2.5" rx="2.5" height="107" width="350" stroke="#78A8D8" fill="#85BBF0" y="955" x="200"></rect><text y="975" x="338.5" textLength="73" lengthAdjust="spacing" font-style="italic" font-size="12" font-family="&quot;Open Sans&quot;, sans-serif" fill="#FFFFFF">&lt;&lt;component&gt;&gt;</text><text fill="#FFFFFF" style="text-anchor: middle; font-size: 16px; font-weight: bold; font-family: &quot;Open Sans&quot;, sans-serif;" dominant-baseline="middle" y="993" x="375"><tspan alignment-baseline="mathematical" dy="0">Core Business Logic Components</tspan></text><text font-style="italic" fill="#FFFFFF" style="text-anchor: middle; font-size: 14px; font-weight: normal; font-family: &quot;Open Sans&quot;, sans-serif;" dominant-baseline="middle" y="1017" x="375"><tspan alignment-baseline="mathematical" dy="0">[Java, Python, Node.js, C#]</tspan></text><text fill="#FFFFFF" style="text-anchor: middle; font-size: 14px; font-weight: normal; font-family: &quot;Open Sans&quot;, sans-serif;" dominant-baseline="middle" y="1051" x="375"><tspan alignment-baseline="mathematical" dy="0">Implements core business logic, rules, and workflows</tspan></text></g><g><rect stroke-dasharray="7.0,7.0" stroke-width="1" ry="2.5" rx="2.5" height="257" width="450" stroke="#444444" fill="none" y="855" x="150"></rect><text fill="#444444" style="text-anchor: middle; font-size: 16px; font-weight: bold; font-family: &quot;Open Sans&quot;, sans-serif;" dominant-baseline="middle" y="863" x="375"><tspan alignment-baseline="mathematical" dy="0">Business Logic Layer</tspan></text><text fill="#444444" style="text-anchor: middle; font-size: 14px; font-weight: normal; font-family: &quot;Open Sans&quot;, sans-serif;" dominant-baseline="middle" y="887" x="375"><tspan alignment-baseline="mathematical" dy="0">[CONTAINER]</tspan></text></g><g class="person-man"><rect stroke-width="0.5" ry="2.5" rx="2.5" height="107" width="330" stroke="#78A8D8" fill="#85BBF0" y="955" x="700"></rect><text y="975" x="828.5" textLength="73" lengthAdjust="spacing" font-style="italic" font-size="12" font-family="&quot;Open Sans&quot;, sans-serif" fill="#FFFFFF">&lt;&lt;component&gt;&gt;</text><text fill="#FFFFFF" style="text-anchor: middle; font-size: 16px; font-weight: bold; font-family: &quot;Open Sans&quot;, sans-serif;" dominant-baseline="middle" y="993" x="865"><tspan alignment-baseline="mathematical" dy="0">ORM Framework</tspan></text><text font-style="italic" fill="#FFFFFF" style="text-anchor: middle; font-size: 14px; font-weight: normal; font-family: &quot;Open Sans&quot;, sans-serif;" dominant-baseline="middle" y="1017" x="865"><tspan alignment-baseline="mathematical" dy="0">[ORM]</tspan></text><text fill="#FFFFFF" style="text-anchor: middle; font-size: 14px; font-weight: normal; font-family: &quot;Open Sans&quot;, sans-serif;" dominant-baseline="middle" y="1051" x="865"><tspan alignment-baseline="mathematical" dy="0">Interacts with the database using ORM framework</tspan></text></g><g><rect stroke-dasharray="7.0,7.0" stroke-width="1" ry="2.5" rx="2.5" height="257" width="430" stroke="#444444" fill="none" y="855" x="650"></rect><text fill="#444444" style="text-anchor: middle; font-size: 16px; font-weight: bold; font-family: &quot;Open Sans&quot;, sans-serif;" dominant-baseline="middle" y="863" x="865"><tspan alignment-baseline="mathematical" dy="0">Data Access Layer</tspan></text><text fill="#444444" style="text-anchor: middle; font-size: 14px; font-weight: normal; font-family: &quot;Open Sans&quot;, sans-serif;" dominant-baseline="middle" y="887" x="865"><tspan alignment-baseline="mathematical" dy="0">[CONTAINER]</tspan></text></g><g class="person-man"><rect stroke-width="0.5" ry="2.5" rx="2.5" height="107" width="274" stroke="#78A8D8" fill="#85BBF0" y="1320" x="200"></rect><text y="1340" x="300.5" textLength="73" lengthAdjust="spacing" font-style="italic" font-size="12" font-family="&quot;Open Sans&quot;, sans-serif" fill="#FFFFFF">&lt;&lt;component&gt;&gt;</text><text fill="#FFFFFF" style="text-anchor: middle; font-size: 16px; font-weight: bold; font-family: &quot;Open Sans&quot;, sans-serif;" dominant-baseline="middle" y="1358" x="337"><tspan alignment-baseline="mathematical" dy="0">RESTful API</tspan></text><text font-style="italic" fill="#FFFFFF" style="text-anchor: middle; font-size: 14px; font-weight: normal; font-family: &quot;Open Sans&quot;, sans-serif;" dominant-baseline="middle" y="1382" x="337"><tspan alignment-baseline="mathematical" dy="0">[API]</tspan></text><text fill="#FFFFFF" style="text-anchor: middle; font-size: 14px; font-weight: normal; font-family: &quot;Open Sans&quot;, sans-serif;" dominant-baseline="middle" y="1416" x="337"><tspan alignment-baseline="mathematical" dy="0">Provides RESTful API for communication</tspan></text></g><g><rect stroke-dasharray="7.0,7.0" stroke-width="1" ry="2.5" rx="2.5" height="257" width="374" stroke="#444444" fill="none" y="1220" x="150"></rect><text fill="#444444" style="text-anchor: middle; font-size: 16px; font-weight: bold; font-family: &quot;Open Sans&quot;, sans-serif;" dominant-baseline="middle" y="1228" x="337"><tspan alignment-baseline="mathematical" dy="0">Service APIs</tspan></text><text fill="#444444" style="text-anchor: middle; font-size: 14px; font-weight: normal; font-family: &quot;Open Sans&quot;, sans-serif;" dominant-baseline="middle" y="1252" x="337"><tspan alignment-baseline="mathematical" dy="0">[CONTAINER]</tspan></text></g><g class="person-man"><rect stroke-width="0.5" ry="2.5" rx="2.5" height="107" width="222" stroke="#78A8D8" fill="#85BBF0" y="1320" x="624"></rect><text y="1340" x="698.5" textLength="73" lengthAdjust="spacing" font-style="italic" font-size="12" font-family="&quot;Open Sans&quot;, sans-serif" fill="#FFFFFF">&lt;&lt;component&gt;&gt;</text><text fill="#FFFFFF" style="text-anchor: middle; font-size: 16px; font-weight: bold; font-family: &quot;Open Sans&quot;, sans-serif;" dominant-baseline="middle" y="1358" x="735"><tspan alignment-baseline="mathematical" dy="0">Event Processor</tspan></text><text font-style="italic" fill="#FFFFFF" style="text-anchor: middle; font-size: 14px; font-weight: normal; font-family: &quot;Open Sans&quot;, sans-serif;" dominant-baseline="middle" y="1382" x="735"><tspan alignment-baseline="mathematical" dy="0">[Component]</tspan></text><text fill="#FFFFFF" style="text-anchor: middle; font-size: 14px; font-weight: normal; font-family: &quot;Open Sans&quot;, sans-serif;" dominant-baseline="middle" y="1416" x="735"><tspan alignment-baseline="mathematical" dy="0">Processes asynchronous events</tspan></text></g><g><rect stroke-dasharray="7.0,7.0" stroke-width="1" ry="2.5" rx="2.5" height="257" width="322" stroke="#444444" fill="none" y="1220" x="574"></rect><text fill="#444444" style="text-anchor: middle; font-size: 16px; font-weight: bold; font-family: &quot;Open Sans&quot;, sans-serif;" dominant-baseline="middle" y="1228" x="735"><tspan alignment-baseline="mathematical" dy="0">Event Handling</tspan></text><text fill="#444444" style="text-anchor: middle; font-size: 14px; font-weight: normal; font-family: &quot;Open Sans&quot;, sans-serif;" dominant-baseline="middle" y="1252" x="735"><tspan alignment-baseline="mathematical" dy="0">[CONTAINER]</tspan></text></g><defs><marker orient="auto" markerHeight="12" markerWidth="12" markerUnits="userSpaceOnUse" refY="5" refX="9" id="arrowhead"><path d="M 0 0 L 10 5 L 0 10 z"></path></marker></defs><defs><marker orient="auto" markerHeight="12" markerWidth="12" markerUnits="userSpaceOnUse" refY="5" refX="1" id="arrowend"><path d="M 10 0 L 0 5 L 10 10 z"></path></marker></defs><defs><marker refY="4" refX="16" orient="auto" markerHeight="8" markerWidth="15" id="crosshead"><path style="stroke-dasharray: 0, 0;" d="M 9,2 V 6 L16,4 Z" stroke-width="1px" stroke="#000000" fill="black"></path><path style="stroke-dasharray: 0, 0;" d="M 0,1 L 6,7 M 6,1 L 0,7" stroke-width="1px" stroke="#000000" fill="none"></path></marker></defs><defs><marker orient="auto" markerHeight="28" markerWidth="20" refY="7" refX="18" id="filled-head"><path d="M 18,7 L9,13 L14,7 L9,1 Z"></path></marker></defs><g><line style="fill: none;" marker-end="url(#arrowhead)" stroke="#444444" stroke-width="1" y2="275" x2="319.3218322427127" y1="955" x1="382.65848670756645"></line><text fill="red" style="text-anchor: middle; font-size: 12px; font-weight: normal; font-family: &quot;Open Sans&quot;, sans-serif;" dominant-baseline="middle" y="585" x="420.49015947513954"><tspan alignment-baseline="mathematical" dy="0">Reads/Writes data from/to</tspan></text><path marker-end="url(#arrowhead)" d="M415.5170415814588,955 Q497.5688490028699,615 743.724271267103,275" stroke="#444444" stroke-width="1" fill="none"></path><text fill="red" style="text-anchor: middle; font-size: 12px; font-weight: normal; font-family: &quot;Open Sans&quot;, sans-serif;" dominant-baseline="middle" y="765" x="649.1206564242809"><tspan alignment-baseline="mathematical" dy="0">Reads/Writes data from/to</tspan></text><path marker-end="url(#arrowhead)" d="M836.1895023858214,955 Q714.7700268488544,615 350.5116002379536,275" stroke="#444444" stroke-width="1" fill="none"></path><text fill="red" style="text-anchor: middle; font-size: 12px; font-weight: normal; font-family: &quot;Open Sans&quot;, sans-serif;" dominant-baseline="middle" y="585" x="662.8505513118874"><tspan alignment-baseline="mathematical" dy="0">Reads/Writes data from/to</tspan></text><path marker-end="url(#arrowhead)" d="M899.3173142467621,955 Q964.153140354911,615 1158.6606186793574,275" stroke="#444444" stroke-width="1" fill="none"></path><text fill="red" style="text-anchor: middle; font-size: 12px; font-weight: normal; font-family: &quot;Open Sans&quot;, sans-serif;" dominant-baseline="middle" y="585" x="1098.4889664630598"><tspan alignment-baseline="mathematical" dy="0">Reads/Writes data from/to</tspan></text><path marker-end="url(#arrowhead)" d="M367.0561797752809,1320 Q373.4205697179601,1191 392.5137395459976,1062" stroke="#444444" stroke-width="1" fill="none"></path><text fill="#444444" style="text-anchor: middle; font-size: 12px; font-weight: normal; font-family: &quot;Open Sans&quot;, sans-serif;" dominant-baseline="middle" y="1191" x="471.2849596606393"><tspan alignment-baseline="mathematical" dy="0">Uses for business logic operations</tspan></text><path marker-end="url(#arrowhead)" d="M719.2770611329221,1320 Q637.7939250434823,901 393.34451677516273,482" stroke="#444444" stroke-width="1" fill="none"></path><text fill="#444444" style="text-anchor: middle; font-size: 12px; font-weight: normal; font-family: &quot;Open Sans&quot;, sans-serif;" dominant-baseline="middle" y="901" x="646.8107889540424"><tspan alignment-baseline="mathematical" dy="0">Sends/receives messages to/from</tspan></text><path marker-end="url(#arrowhead)" d="M366,739.0419580419581 Q469.330615942029,847.020979020979 779.322463768116,955" stroke="#444444" stroke-width="1" fill="none"></path><text fill="#444444" style="text-anchor: middle; font-size: 12px; font-weight: normal; font-family: &quot;Open Sans&quot;, sans-serif;" dominant-baseline="middle" y="847.020979020979" x="586.161231884058"><tspan alignment-baseline="mathematical" dy="0">Uses</tspan></text><path marker-end="url(#arrowhead)" d="M562.495737704918,747 Q513.9256254315746,1033.5 368.21528861154445,1320" stroke="#444444" stroke-width="1" fill="none"></path><text fill="#444444" style="text-anchor: middle; font-size: 12px; font-weight: normal; font-family: &quot;Open Sans&quot;, sans-serif;" dominant-baseline="middle" y="1033.5" x="478.85551315823125"><tspan alignment-baseline="mathematical" dy="0">Uses</tspan></text><path marker-end="url(#arrowhead)" d="M885.808524590164,747 Q853.6567054551034,1033.5 757.201248049922,1320" stroke="#444444" stroke-width="1" fill="none"></path><text fill="#444444" style="text-anchor: middle; font-size: 12px; font-weight: normal; font-family: &quot;Open Sans&quot;, sans-serif;" dominant-baseline="middle" y="1033.5" x="835.0048863200429"><tspan alignment-baseline="mathematical" dy="0">Uses</tspan></text><path marker-end="url(#arrowhead)" d="M1098,742.7759336099585 Q961,851.821398757642 550,960.8668639053254" stroke="#444444" stroke-width="1" fill="none"></path><text fill="#444444" style="text-anchor: middle; font-size: 12px; font-weight: normal; font-family: &quot;Open Sans&quot;, sans-serif;" dominant-baseline="middle" y="851.821398757642" x="898.5"><tspan alignment-baseline="mathematical" dy="0">Uses for security operations</tspan></text><path marker-end="url(#arrowhead)" d="M1146.1337704918033,747 Q965.0082841871051,1033.5 421.6318252730109,1320" stroke="#444444" stroke-width="1" fill="none"></path><text fill="#444444" style="text-anchor: middle; font-size: 12px; font-weight: normal; font-family: &quot;Open Sans&quot;, sans-serif;" dominant-baseline="middle" y="1033.5" x="858.3827978824071"><tspan alignment-baseline="mathematical" dy="0">Uses for security operations</tspan></text></g><text y="20" x="508">CORE Deployment Diagram</text></svg>
